<svg xmlns="http://www.w3.org/2000/svg" viewBox="0 0 400 400" role="img" aria-label="MULTIFLORA">
  <defs>
    <linearGradient id="mfGold" x1="20%" y1="0%" x2="80%" y2="100%">
      <stop offset="0%" stop-color="#FFF176"/>
      <stop offset="45%" stop-color="#FFCA28"/>
      <stop offset="100%" stop-color="#F57F17"/>
    </linearGradient>
    <linearGradient id="mfGreen" x1="20%" y1="0%" x2="80%" y2="100%">
      <stop offset="0%" stop-color="#AED581"/>
      <stop offset="45%" stop-color="#66BB6A"/>
      <stop offset="100%" stop-color="#2E7D32"/>
    </linearGradient>
    <filter id="mfShadow" x="-15%" y="-15%" width="130%" height="130%">
      <feDropShadow dx="0" dy="6" stdDeviation="10" flood-color="#000" flood-opacity="0.22"/>
    </filter>
  </defs>
  <circle cx="200" cy="200" r="186" fill="#ECECEC" filter="url(#mfShadow)"/>
  <g transform="translate(200 200)">
    <ellipse cx="0" cy="-88" rx="44" ry="76" fill="url(#mfGold)" transform="rotate(-135)"/>
    <ellipse cx="0" cy="-88" rx="44" ry="76" fill="url(#mfGreen)" transform="rotate(-45)"/>
    <ellipse cx="0" cy="-88" rx="44" ry="76" fill="url(#mfGold)" transform="rotate(45)"/>
    <ellipse cx="0" cy="-88" rx="44" ry="76" fill="url(#mfGreen)" transform="rotate(135)"/>
  </g>
  <g stroke-linecap="round">
    <line x1="86" y1="194" x2="122" y2="194" stroke="#388E3C" stroke-width="3.5"/>
    <line x1="90" y1="204" x2="114" y2="204" stroke="#F9A825" stroke-width="2.5"/>
    <line x1="90" y1="211" x2="114" y2="211" stroke="#F9A825" stroke-width="2.5"/>
    <line x1="278" y1="194" x2="314" y2="194" stroke="#388E3C" stroke-width="3.5"/>
    <line x1="286" y1="204" x2="310" y2="204" stroke="#F9A825" stroke-width="2.5"/>
    <line x1="286" y1="211" x2="310" y2="211" stroke="#F9A825" stroke-width="2.5"/>
  </g>
  <text x="200" y="210" text-anchor="middle" font-family="Arial, Helvetica, sans-serif" font-size="38" font-weight="700" letter-spacing="2.5" fill="#1a1a1a">MULTIFLORA</text>
</svg>
